<?xml version="1.0" encoding="UTF-8"?>
<svg width='130' height='40' version="1.1" xmlns="http://www.w3.org/2000/svg" xmlns:xlink="http://www.w3.org/1999/xlink">
    <title>six-park-logo-reversed</title>
    <defs>
        <polygon id="path-1" points="0 39.8359184 129.824486 39.8359184 129.824486 0 0 0"></polygon>
    </defs>
    <g id="Assets" stroke="none" stroke-width="1" fill="none" fill-rule="evenodd">
        <g id="six-park-logo-reversed">
            <path d="M9.35302306,18.5084626 C7.31172327,17.7389388 6.22893501,17.1359456 6.22893501,16.2624762 C6.22893501,15.1811156 7.35342138,14.7030204 8.26996226,14.7030204 C9.81115723,14.7030204 11.6439665,15.3884626 13.2478449,16.907102 L15.9554969,12.8314558 C13.5806122,11.0015238 11.2275304,10.2102313 8.33155556,10.2102313 C4.08325367,10.2102313 0.833526205,12.6858776 0.833526205,16.4496871 C0.833526205,20.4632925 3.81180713,22.084517 7.24849476,23.2075102 C9.95614675,24.0807075 11.0392075,24.5590748 11.0392075,25.5155374 C11.0392075,26.534585 10.1019539,27.2423401 8.47709015,27.2423401 C6.20685954,27.2423401 4.41547589,26.4096871 2.70776101,24.8085986 L0.000109014675,28.6556735 C2.26979455,30.6518639 5.10226834,31.7128163 8.43484696,31.7128163 L8.43648218,31.7128163 C13.8934843,31.7128163 16.51774,28.926966 16.51774,25.2461497 C16.51774,21.149551 13.872499,20.1721361 9.35302306,18.5084626 Z" id="Fill-1" fill="#14A8A0"></path>
            <mask id="mask-2" fill="white">
                <use xlink:href="#path-1"></use>
            </mask>
            <g id="Clip-4"></g>
            <polygon id="Fill-3" fill="#14A8A0" mask="url(#mask-2)" points="18.4984277 31.3594558 24.0802516 31.3594558 24.0802516 10.5638095 18.4984277 10.5638095"></polygon>
            <path d="M21.2894214,0.831727891 C19.3732159,0.831727891 17.832021,2.3705034 17.832021,4.22138776 C17.832021,6.11363265 19.3732159,7.63254422 21.2894214,7.63254422 C23.184914,7.63254422 24.7473669,6.11363265 24.7473669,4.22138776 C24.7473669,2.3705034 23.184914,0.831727891 21.2894214,0.831727891" id="Fill-5" fill="#14A8A0" mask="url(#mask-2)"></path>
            <polygon id="Fill-6" fill="#14A8A0" mask="url(#mask-2)" points="46.0978365 10.5638912 39.7869769 10.5638912 35.8921551 16.511102 35.7880461 16.511102 31.9349224 10.5638912 25.5823648 10.5638912 32.6852159 20.7325986 25.520499 31.3595374 31.5811698 31.3595374 35.809304 25.3916463 35.913413 25.3916463 40.1202893 31.3595374 46.2229308 31.3595374 38.9960755 20.7119184"></polygon>
            <path d="M106.464985,10.2103129 C104.007249,10.2103129 101.757459,11.4165714 100.174839,13.6206531 L100.112428,13.6206531 L100.112428,10.5637823 L94.5306038,10.5637823 L94.5306038,30.1011973 L94.5306038,31.3594286 L94.9037065,31.3594286 L100.112428,31.3594286 L100.112428,24.6462313 L100.112428,22.908 L100.112428,21.7099048 C100.112428,18.6116735 101.986935,16.2824218 105.423623,16.2824218 C105.736222,16.2824218 106.340436,16.3033741 106.902134,16.3447347 L106.902134,10.2312653 C106.777312,10.2103129 106.631505,10.2103129 106.465258,10.2103129 L106.464985,10.2103129 Z" id="Fill-7" fill="#FFFFFF" mask="url(#mask-2)"></path>
            <path d="M59.0549119,26.7224762 C55.9932348,26.7224762 53.6188952,24.4558095 53.6188952,21.0454694 C53.6188952,17.7181224 55.8474277,15.2228844 59.0549119,15.2228844 C62.0331929,15.2228844 64.3862746,17.489551 64.3862746,21.0454694 C64.3862746,24.414449 62.1994403,26.7224762 59.0549119,26.7224762 M60.2420818,10.2111837 L60.2415367,10.2103673 C57.6799644,10.2103673 55.4724172,11.146966 53.9304046,12.9562177 L53.8470084,12.9562177 L53.8470084,10.5638367 L48.2651845,10.5638367 L48.2651845,39.7815238 L53.8470084,39.7815238 L53.8470084,29.0307755 L53.9304046,29.0307755 C55.3683082,30.7564898 57.450761,31.7129524 60.0755618,31.7129524 C65.844891,31.7129524 70.0520398,27.4503673 70.0520398,21.0247891 C70.0520398,14.7028844 65.8239057,10.2111837 60.2420818,10.2111837" id="Fill-8" fill="#FFFFFF" mask="url(#mask-2)"></path>
            <path d="M81.8429853,26.7216599 C78.7188973,26.7216599 76.5113501,24.4133605 76.5113501,21.0446531 C76.5113501,17.4884626 78.8647044,15.222068 81.8639706,15.222068 C84.8839497,15.222068 87.1124822,17.7173061 87.1124822,21.0446531 C87.1124822,24.4549932 84.7381426,26.7216599 81.8429853,26.7216599 L81.8429853,26.7216599 Z M86.8832788,12.9137687 L86.7996101,12.9137687 C85.2586876,11.1254694 83.1135514,10.2103673 80.6560881,10.2103673 C75.0739916,10.2103673 70.8458574,14.702068 70.8458574,21.0239728 C70.8458574,27.449551 75.0532788,31.7121361 80.822608,31.7121361 C83.5092746,31.7121361 85.6129853,30.6936327 87.0497987,28.8427483 L87.1541803,28.8427483 L87.1541803,31.359483 L92.4653753,31.359483 L92.4653753,10.5638367 L86.8832788,10.5638367 L86.8832788,12.9137687 Z" id="Fill-9" fill="#FFFFFF" mask="url(#mask-2)"></path>
            <polygon id="Fill-10" fill="#FFFFFF" mask="url(#mask-2)" points="108.798581 20.1121361 108.798581 21.4628844 108.798581 27.946966 108.798581 29.2982585 108.798581 31.359483 111.441914 31.359483 111.724262 31.359483 114.380132 31.359483 114.380132 29.5012517 114.376317 29.5012517 114.376317 28.3948571 114.376317 26.7959456 114.376317 24.7888707 114.376317 20.0090068 114.376317 19.1241088 114.376317 17.5251973 114.376317 15.8158095 114.380132 15.8158095 114.380132 -0.000244897959 108.798581 -0.000244897959"></polygon>
            <polygon id="Fill-11" fill="#FFFFFF" mask="url(#mask-2)" points="121.821774 20.0697415 121.077476 20.9023946 118.82496 23.421034 118.08039 24.2528707 122.337413 31.3595374 128.564331 31.3595374"></polygon>
            <polygon id="Fill-12" fill="#14A8A0" mask="url(#mask-2)" points="92.2920147 34.7253605 56.3005472 34.7253605 56.3005472 39.8358367 94.80126 39.8358367 100.552329 32.4241361 94.0779476 32.4241361"></polygon>
            <polygon id="Fill-13" fill="#14A8A0" mask="url(#mask-2)" points="101.178727 23.2722177 101.178727 31.6172517 105.825205 25.6286803 107.732145 27.115483 107.732145 20.6311293 104.925289 18.4436463"></polygon>
            <polygon id="Fill-14" fill="#14A8A0" mask="url(#mask-2)" points="122.032581 10.5638912 115.446732 17.9271565 115.446732 19.4425306 115.446732 23.5837551 115.446732 25.188381 115.446732 25.5987211 117.507109 23.2955918 118.251407 22.4632109 120.50474 19.9442993 121.24931 19.1116463 129.824677 9.52416327 122.972287 9.52416327"></polygon>
        </g>
    </g>
</svg>